<svg width="32" height="32" viewBox="0 0 32 32" fill="none" xmlns="http://www.w3.org/2000/svg">
  <rect width="32" height="32" rx="8" fill="url(#paint0_linear)"/>
  <path d="M21.5 18.5C21.5 22.0899 18.5899 25 15 25C11.4101 25 8.5 22.0899 8.5 18.5C8.5 14.9101 11.4101 12 15 12C15.5 12 15.98 12.05 16.44 12.16C15.24 13.1 14.5 14.56 14.5 16.2C14.5 19.12 16.88 21.5 19.8 21.5C20.42 21.5 21.01 21.39 21.56 21.18C21.52 21.28 21.5 21.39 21.5 21.5Z" fill="white"/>
  <path d="M22 8L22.5 10L24.5 10.5L22.5 11L22 13L21.5 11L19.5 10.5L21.5 10L22 8Z" fill="#A29BFE"/>
  <defs>
    <linearGradient id="paint0_linear" x1="0" y1="0" x2="32" y2="32" gradientUnits="userSpaceOnUse">
      <stop stop-color="#6C5CE7"/>
      <stop offset="1" stop-color="#A29BFE"/>
    </linearGradient>
  </defs>
</svg>